# Blender v2.78 (sub 0) OBJ File: ''
# www.blender.org
mtllib torch_wall.mtl
o Cube_Cube.001_Cube_Cube.001_Material.001
v 0.062469 -0.303502 0.086070
v 0.062469 -0.195248 0.023570
v -0.062531 -0.195248 0.023570
v -0.062531 -0.303502 0.086070
v -0.062531 -0.584752 -0.401070
v 0.062469 -0.584752 -0.401070
v 0.062469 -0.476498 -0.463570
v -0.062531 -0.476498 -0.463570
v 0.353553 0.056811 -0.121957
v 0.353553 -0.224439 -0.609096
v -0.353553 -0.836811 -0.255543
v -0.353553 -0.555561 0.231596
v -0.353553 0.056811 -0.121957
v -0.353553 -0.224439 -0.609096
v 0.353553 -0.836811 -0.255543
v 0.353553 -0.555561 0.231596
vt 0.5625 0.5000
vt 0.5625 0.6250
vt 0.4375 0.6250
vt 0.4375 0.5000
vt 0.4375 0.0000
vt 0.5625 0.0000
vt 0.5625 0.1250
vt 0.4375 0.1250
vt 0.5625 0.6250
vt 0.4375 0.6250
vt 0.4375 0.6250
vt 0.4375 0.0000
vt 0.5625 0.6250
vt 0.5625 0.0000
vt 0.0000 0.5625
vt 0.0000 -0.0000
vt 1.0000 0.0000
vt 1.0000 0.5625
vt 0.0000 0.5625
vt 0.0000 -0.0000
vt 1.0000 0.0000
vt 1.0000 0.5625
vn 0.0000 0.5000 0.8660
vn 0.0000 0.8660 -0.5000
vn 1.0000 -0.0000 0.0000
vn -0.7071 0.6124 -0.3536
vn -0.7071 -0.6124 0.3536
usemtl Material.001
s 1
f 1/1/1 2/2/1 3/3/1 4/4/1
f 5/5/1 6/6/1 7/7/1 8/8/1
f 1/9/2 6/6/2 5/5/2 4/10/2
f 2/11/3 1/9/3 6/6/3 7/12/3
f 3/13/2 2/11/2 7/12/2 8/14/2
f 4/10/3 5/5/3 8/14/3 3/13/3
f 9/15/4 10/16/4 11/17/4 12/18/4
f 13/19/5 14/20/5 15/21/5 16/22/5
